<svg xmlns:rdf="http://www.w3.org/1999/02/22-rdf-syntax-ns#" xmlns="http://www.w3.org/2000/svg" height="23.434mm" width="50.423mm" version="1.1" xmlns:cc="http://creativecommons.org/ns#" xmlns:dc="http://purl.org/dc/elements/1.1/" viewBox="0 0 178.66499 83.035365">
<g transform="translate(-404.95 -513.7)">
<g transform="matrix(.75311 0 0 .75311 380.25 468.53)">
<!-- <g transform="matrix(.75311 0 0 .75311 380.25 468.53)" fill="#f68714"> -->
<path d="m201.59 62.152c1.221 1.5917 2.4178 3.7367 3.5919 6.4804l12.068 27.86c1.7137 3.8566 3.2046 7.2194 4.4726 10.131 1.2559 2.9249 2.3944 5.5446 3.3804 7.9001 0.99821 2.3686 1.8782 4.5065 2.6414 6.4866 0.77462 1.9804 1.5144 3.8258 2.242 5.7023 0.71626-4.4002 1.597-9.1593 2.6414-13.999 1.0331-4.8405 2.2306-10.564 3.5926-16.724l7.894-36.014h-44.498c0.67306 0.75794 1.3317 1.3309 1.9737 2.1761"/>
<path d="m270.03 66.569-21.24 87.941c-1.268 5.1637-3.3759 9.5341-6.2166 12.019-2.8522 2.4722-6.0605 3.7018-9.5819 3.7018-3.6162 0-6.6813-1.0354-9.1582-3.1318-2.4891-2.0838-4.5969-4.9441-6.3106-8.5808l-14.501-31.178c-1.9957-4.2839-3.7116-8.0499-5.1555-11.298-1.4439-3.2485-2.7589-6.1606-3.933-8.7489-1.1741-2.5756-2.1844-4.9181-3.053-7.0015-0.85647-2.0968-1.6902-4.1284-2.5004-6.1089-0.72763 1.9805-1.5144 4.0129-2.3716 6.1098-0.85648 2.0837-1.8547 4.4275-2.9818 7.003-1.1271 2.5885-2.4178 5.4774-3.8617 8.674-1.4439 3.1837-3.1697 6.9293-5.154 11.213l-14.497 31.356c-1.6319 3.5206-3.6866 6.1953-6.1636 8.3442-2.1253 1.835-4.7 2.993-7.709 2.993h124.39v-103.31"/>
<path d="m32.796 88.778v81.1h43.203v-81.1h-43.203"/>
<path d="m128.35 155.4-13.923-58.282h27.469c1.4439 6.0635 2.6414 11.444 3.5919 16.168 0.95122 4.7368 1.785 9.0625 2.5126 13.566 1.4439-3.8439 3.1341-8.1148 5.0828-12.787 1.9373-4.672 4.4848-10.587 7.6537-17.731l12.197-27.723c1.174-2.7438 2.3481-4.8637 3.5222-6.4562 0.62303-0.84511 1.268-1.4196 1.9297-2.1776h-10.566l-12.289 28.802h-51.489v81.1h38.541c-2.9355 0-5.6247-1.2414-8.0698-3.3598-2.8408-2.4852-4.8948-5.9567-6.1628-11.12"/>
</g>
</g>
</svg>
